<svg width="50" height="51" viewBox="0 0 50 51" fill="none" xmlns="http://www.w3.org/2000/svg">
<circle cx="25" cy="25.5" r="25" fill="#D6D6D6"/>
<path d="M30 31.25H35M15 26.25H20M15 30V27.025C15 24.375 13.7125 23.125 13.75 20C13.7875 16.6 15.6125 12.5 19.375 12.5C21.7125 12.5 22.5 14.75 22.5 16.875C22.5 20.7625 20 23.95 20 27.725V30C20 30.663 19.7366 31.2989 19.2678 31.7678C18.7989 32.2366 18.1631 32.5 17.5 32.5C16.837 32.5 16.2011 32.2366 15.7322 31.7678C15.2634 31.2989 15 30.663 15 30ZM35 35V32.025C35 29.375 36.2875 28.125 36.25 25C36.2125 21.6 34.3875 17.5 30.625 17.5C28.2875 17.5 27.5 19.75 27.5 21.875C27.5 25.7625 30 28.95 30 32.725V35C30 35.663 30.2634 36.2989 30.7322 36.7678C31.2011 37.2366 31.837 37.5 32.5 37.5C33.1631 37.5 33.7989 37.2366 34.2678 36.7678C34.7366 36.2989 35 35.663 35 35Z" stroke="black" stroke-width="2" stroke-linecap="round" stroke-linejoin="round"/>
</svg>
