<svg width="50" height="51" viewBox="0 0 50 51" fill="none" xmlns="http://www.w3.org/2000/svg">
<circle cx="25" cy="25.5" r="25" fill="#D6D6D6"/>
<path d="M18.75 23V38M28.75 17.85L27.5 23H34.7875C35.1756 23 35.5584 23.0904 35.9055 23.2639C36.2527 23.4375 36.5546 23.6895 36.7875 24C37.0204 24.3105 37.1777 24.6709 37.2472 25.0528C37.3166 25.4346 37.2962 25.8274 37.1875 26.2L34.275 36.2C34.1235 36.7193 33.8077 37.1754 33.375 37.5C32.9423 37.8246 32.4159 38 31.875 38H15C14.337 38 13.7011 37.7366 13.2322 37.2678C12.7634 36.7989 12.5 36.163 12.5 35.5V25.5C12.5 24.837 12.7634 24.2011 13.2322 23.7322C13.7011 23.2634 14.337 23 15 23H18.45C18.9151 22.9998 19.3709 22.8698 19.7662 22.6247C20.1615 22.3795 20.4805 22.029 20.6875 21.6125L25 13C25.5895 13.0073 26.1697 13.1477 26.6973 13.4107C27.2248 13.6738 27.6862 14.0526 28.0468 14.519C28.4073 14.9854 28.6579 15.5272 28.7797 16.104C28.9014 16.6808 28.8913 17.2777 28.75 17.85Z" stroke="black" stroke-width="2" stroke-linecap="round" stroke-linejoin="round"/>
</svg>
