<svg width="50" height="51" viewBox="0 0 50 51" fill="none" xmlns="http://www.w3.org/2000/svg">
<circle cx="25" cy="25.5" r="25" fill="#D6D6D6"/>
<path d="M29.045 37.5C29.5251 36.9633 29.8406 36.2997 29.9536 35.5885C30.0667 34.8773 29.9726 34.1486 29.6826 33.4895C29.3926 32.8303 28.9189 32.2686 28.3182 31.8715C27.7174 31.4744 27.0151 31.2586 26.295 31.25M30 35C30 34.0054 30.3951 33.0516 31.0983 32.3483C31.8016 31.6451 32.7554 31.25 33.75 31.25H35C35.663 31.25 36.2989 30.9866 36.7678 30.5178C37.2366 30.0489 37.5 29.413 37.5 28.75V26.25C37.5 24.9239 36.9732 23.6521 36.0355 22.7145C35.0979 21.7768 33.8261 21.25 32.5 21.25V15M32.5 26.25H32.5125M32.5 17.5C31.1739 17.5 29.9021 18.0268 28.9645 18.9645C28.0268 19.9021 27.5 21.1739 27.5 22.5C25.1794 22.5 22.9538 23.4219 21.3128 25.0628C19.6719 26.7038 18.75 28.9294 18.75 31.25C18.75 25 23.75 25 23.75 18.125C23.75 17.3863 23.6045 16.6549 23.3218 15.9724C23.0391 15.2899 22.6248 14.6699 22.1025 14.1475C21.5801 13.6252 20.9601 13.2109 20.2776 12.9282C19.5951 12.6455 18.8637 12.5 18.125 12.5C17.3863 12.5 16.6549 12.6455 15.9724 12.9282C15.2899 13.2109 14.6699 13.6252 14.1475 14.1475C13.6252 14.6699 13.2109 15.2899 12.9282 15.9724C12.6455 16.6549 12.5 17.3863 12.5 18.125C12.5 18.9538 12.8292 19.7487 13.4153 20.3347C14.0013 20.9208 14.7962 21.25 15.625 21.25C16.4538 21.25 17.2487 20.9208 17.8347 20.3347C18.4208 19.7487 18.75 18.9538 18.75 18.125C18.75 22.5 13.75 23.75 13.75 31.25C13.75 34.75 16.5 37.5 20 37.5H32.5" stroke="black" stroke-width="2" stroke-linecap="round" stroke-linejoin="round"/>
</svg>
